<?xml version="1.0" encoding="UTF-8"?>
<svg width="16px" height="16px" viewBox="0 0 16 16" version="1.1" xmlns="http://www.w3.org/2000/svg" xmlns:xlink="http://www.w3.org/1999/xlink">
    <!-- Generator: Sketch 48.2 (47327) - http://www.bohemiancoding.com/sketch -->
    <title>download</title>
    <desc>Created with Sketch.</desc>
    <defs>
        <path d="M7.21664721,9.4039798 L7.21664721,2.36693063 C7.21664721,1.95271707 7.55243365,1.61693063 7.96664721,1.61693063 C8.38086077,1.61693063 8.71664721,1.95271707 8.71664721,2.36693063 L8.71664721,9.46171172 L10.6039111,7.57444779 C10.8968044,7.28155457 11.3716781,7.28155457 11.6645713,7.57444779 C11.9574645,7.867341 11.9574645,8.34221474 11.6645713,8.63510796 L8.52584326,11.773836 C8.23295004,12.0667292 7.7580763,12.0667292 7.46518308,11.773836 L4.20180517,8.51045811 C3.90891195,8.21756489 3.90891195,7.74269115 4.20180517,7.44979793 C4.49469839,7.15690471 4.96957212,7.15690471 5.26246534,7.44979793 L7.21664721,9.4039798 Z M14.25,13.4030003 L14.25,9.06705991 C14.25,8.65284635 14.5857864,8.31705991 15,8.31705991 C15.4142136,8.31705991 15.75,8.65284635 15.75,9.06705991 L15.75,14.1530003 C15.75,14.5672138 15.4142136,14.9030003 15,14.9030003 L1,14.9030003 C0.585786438,14.9030003 0.25,14.5672138 0.25,14.1530003 L0.25,9 C0.25,8.58578644 0.585786438,8.25 1,8.25 C1.41421356,8.25 1.75,8.58578644 1.75,9 L1.75,13.4030003 L14.25,13.4030003 Z" id="path-1"></path>
    </defs>
    <g id="lv1/Icons16/export" stroke="none" stroke-width="1" fill="none" fill-rule="evenodd">
        <mask id="mask-2" fill="white">
            <use xlink:href="#path-1"></use>
        </mask>
        <use id="Combined-Shape" fill="#979797" fill-rule="nonzero" xlink:href="#path-1"></use>
    </g>
</svg>