<?xml version="1.0" encoding="UTF-8"?>
<svg width="24px" height="24px" viewBox="0 0 24 24" version="1.1" xmlns="http://www.w3.org/2000/svg" xmlns:xlink="http://www.w3.org/1999/xlink">
    <!-- Generator: Sketch 48.2 (47327) - http://www.bohemiancoding.com/sketch -->
    <title>new-page</title>
    <desc>Created with Sketch.</desc>
    <defs>
        <path d="M19,19 L5,19 L5,5 L11,5 C11.5522847,5 12,4.55228475 12,4 L12,4 C12,3.44771525 11.5522847,3 11,3 L5,3 C3.89,3 3,3.9 3,5 L3,19 C3,20.1 3.89,21 5,21 L19,21 C20.1,21 21,20.1 21,19 L21,13 C21,12.4477153 20.5522847,12 20,12 L20,12 C19.4477153,12 19,12.4477153 19,13 L19,19 Z M14,4 L14,4 C14,4.55228475 14.4477153,5 15,5 L17.59,5 L8.465,14.125 C8.07563925,14.5143607 8.07563925,15.1456393 8.465,15.535 L8.465,15.535 C8.85436075,15.9243607 9.48563925,15.9243607 9.875,15.535 L19,6.41 L19,9 C19,9.55228475 19.4477153,10 20,10 L20,10 C20.5522847,10 21,9.55228475 21,9 L21,4 C21,3.44771525 20.5522847,3 20,3 L15,3 C14.4477153,3 14,3.44771525 14,4 Z" id="path-1"></path>
    </defs>
    <g id="lv1/Icons24/open_new" stroke="none" stroke-width="1" fill="none" fill-rule="evenodd">
        <mask id="mask-2" fill="white">
            <use xlink:href="#path-1"></use>
        </mask>
        <use id="Shape" fill="#FFFFFF" fill-rule="nonzero" xlink:href="#path-1"></use>
    </g>
</svg>